%
T1C.01575F095S3
X207543Y165543
X207736Y166142
X207606Y166535
X208067Y167543
X20575Y1695
X204882Y170118
X211791Y170209
X21075Y1675
X211374Y165949
X21Y16225
X210382Y160504
X210724Y16028
X211571Y160264
X211165Y16026
X20975Y15975
X2095Y15575
X212Y153
X21198Y160264
X21322Y162673
X212622Y162772
X213079Y163087
X212941Y163488
X214039Y166835
X2135Y16725
X213295Y170358
X212106Y170579
X2125Y17072
X2145Y1735
X21525Y17125
X215248Y170217
X214492Y166839
X215732Y161335
X21465Y159323
X2165Y158
X216Y15625
X216Y15475
X215Y15425
X216Y15425
X2155Y15325
X2195Y15325
X21875Y1605
X221835Y161256
X2215Y1615
X220311Y161705
X220417Y162079
X220681Y162374
X220898Y162697
X220335Y162839
X219992Y163035
X219681Y163291
X21775Y16425
X217858Y164701
X218177Y164937
X217799Y165091
X218583Y165122
X217996Y166394
X22025Y1735
X226402Y173614
X22425Y173
X221984Y171201
X2255Y1705
X225441Y166685
X225165Y166409
X22275Y16625
X22489Y166118
X22465Y165815
X224791Y164803
X224496Y1645
X225244Y16439
X225602Y164173
X225039Y163465
X222Y16275
X222142Y162374
X222Y1605
X22275Y1595
X2315Y159
X231Y1595
X230295Y159594
X230665Y159941
X22825Y16
X227799Y160063
X231Y16025
X227795Y161232
X2285Y1675
X228122Y172839
X22975Y17325
X23225Y1635
T2C.02362F197S55
X205539Y152035G85X205539Y153571
X20735Y152035G85X20735Y153571
T3C.024F197S55
X200717Y155516
X200138Y16076
X199Y162673
X19698Y163484
X198976Y169142
X206295Y171929
X206161Y170449
X203228Y17011
X202575Y169134
X20475Y16575
X204795Y160508
X204795Y158598
X211Y1565
X21175Y16125
X211717Y163685
X211953Y165252
X211799Y165732
X214689Y17175
X216Y17175
X21422Y170539
X21525Y16575
X21626Y165614
X215736Y164949
X212807Y161827
X213394Y16102
X215047Y15885
X212Y158835
X216Y1575
X212685Y155701
X216433Y155417
X212Y15475
X217618Y153256
X219276Y155835
X2175Y156
X22072Y158697
X217362Y158713
X218449Y158791
X220323Y166972
X22439Y17111
X22625Y16825
X222657Y167311
X223Y16575
X225457Y160437
X228685Y160988
X228752Y16311
X231126Y163413
X231827Y164689
X2275Y16725
X229071Y1685
X228984Y170854
X227185Y170925
X22925Y1725
X232594Y165354
X232602Y16402
X23425Y15975
T4C.0315F197S55
X209402Y171846
X208598Y171846
X209Y172846
X208197Y172846
X209803Y172846
X210205Y171846
X21374Y168878
X212953Y168878
X213346Y168091
X214134Y168091
X212559Y168091
X216496Y168091
X215709Y168091
X214921Y168091
X218858Y168091
X218071Y168091
X217283Y168091
X214528Y168878
X219252Y168878
X21689Y168878
X218465Y168878
X215315Y168878
X217677Y168878
X216102Y168878
X221614Y168878
X220827Y168878
X220039Y168878
X223976Y168878
X223189Y168878
X222402Y168878
X222008Y168091
X220433Y168091
X223583Y168091
X22122Y168091
X222795Y168091
X219646Y168091
T5C.035F197S55
X201201Y150705
X202201Y150705
X205724Y162201
X22689Y17452
X22589Y17452
X226409Y167114
X226409Y166114
X226409Y165114
X226409Y164114
X207693Y162201
X231193Y166114
X231193Y167114
X231193Y168114
X231193Y169114
X231228Y170402
X231228Y171402
X231228Y172402
X231228Y173402
X22989Y17452
X22889Y17452
X22789Y17452
T6C.03543F197S55
X219744Y170402
X220728Y170402
X220728Y171189
X219744Y171189
T7C.037F197S55
X217685Y154839
X218685Y154839
X221217Y154854
X222217Y154854
T8C.03937F197S55
X201157Y153461
X203354Y153461
X206608Y15746
X203886Y166539
X206083Y166539
X208639Y158297
T9C.04331F139S55
X229921Y151787
X229921Y153756
X234803Y153756
X234803Y151787
T10C.09055F066S55
X217874Y172252
X222598Y172252
T11C.09291F066S55
X206839Y173752
X211563Y173752
M30
