*
*
G04 PADS 9.5 Build Number: 522968 generated Gerber (RS-274-X) file*
G04 PC Version=2.1*
*
%IN "SCAN_V2.01.pcb"*%
*
%MOIN*%
*
%FSLAX35Y35*%
*
*
*
*
G04 PC Standard Apertures*
*
*
G04 Thermal Relief Aperture macro.*
%AMTER*
1,1,$1,0,0*
1,0,$1-$2,0,0*
21,0,$3,$4,0,0,45*
21,0,$3,$4,0,0,135*
%
*
*
G04 Annular Aperture macro.*
%AMANN*
1,1,$1,0,0*
1,0,$2,0,0*
%
*
*
G04 Odd Aperture macro.*
%AMODD*
1,1,$1,0,0*
1,0,$1-0.005,0,0*
%
*
*
G04 PC Custom Aperture Macros*
*
*
*
*
*
*
G04 PC Aperture Table*
*
%ADD013C,0.001*%
%ADD042R,0.036X0.036*%
%ADD064R,0.04X0.05*%
%ADD069O,0.074X0.024*%
%ADD082C,0.035*%
%ADD121R,0.036X0.05*%
%ADD240R,0.074X0.024*%
%ADD257R,0.02X0.025*%
%ADD258R,0.025X0.02*%
%ADD264R,0.05X0.036*%
%ADD284R,0.03937X0.03937*%
%ADD289R,0.03937X0.05*%
%ADD336R,0.07087X0.03937*%
%ADD337O,0.07087X0.03937*%
%ADD338O,0.03937X0.07087*%
%ADD339R,0.03937X0.07087*%
%ADD351R,0.08661X0.01575*%
*
*
*
*
G04 PC Circuitry*
G04 Layer Name SCAN_V2.01.pcb - circuitry*
%LPD*%
*
*
G04 PC Custom Flashes*
G04 Layer Name SCAN_V2.01.pcb - flashes*
%LPD*%
*
*
G04 PC Circuitry*
G04 Layer Name SCAN_V2.01.pcb - circuitry*
%LPD*%
*
G54D13*
G01X1901575Y1474016D02*
Y1481890D01*
X1906299*
Y1474016*
X2093701*
Y1481890*
X2098425*
Y1474016*
X2197829*
G75*
G03X2199797Y1475984I-0J1968D01*
G01Y1544494*
X2237205*
G03X2239173Y1546463I-0J1969*
G01Y1629528*
G03X2237205Y1631496I-1968J-0*
G01X2119094*
Y1724016*
G03X2117126Y1725984I-1968J-0*
G01X2048425*
Y1717717*
X2042913*
Y1725984*
X1846850*
Y1717717*
X1841339*
Y1725984*
X1762795*
G03X1760827Y1724016I0J-1968*
G01Y1546463*
G03X1762795Y1544494I1968J-0*
G01X1800203*
Y1475984*
G03X1802171Y1474016I1968J0*
G01X1901575*
X1908661Y1619685D02*
G03X1908661I-6102J0D01*
G01X2103543D02*
G03X2103543I-6102J0D01*
G01X2073228Y1520620D02*
G03X2073228I-11023J0D01*
G01X2091929Y1550148D02*
G03X2091929I-4134J0D01*
G01Y1491092D02*
G03X2091929I-4134J0D01*
G54D42*
G01X1964793Y1543147D03*
X1972293D03*
X1987096Y1545829D03*
X1979596D03*
X1844683Y1659222D03*
Y1651722D03*
X1843691Y1703108D03*
X1851191D03*
X1850069Y1688502D03*
X1857569D03*
G54D64*
X1976244Y1500748D03*
X1968244D03*
G54D69*
X1866575Y1668366D03*
Y1663366D03*
Y1658366D03*
X1892205D03*
Y1663366D03*
Y1668366D03*
Y1673366D03*
G54D82*
X1924409Y1554331D03*
G54D121*
X1968543Y1551147D03*
X1983346Y1537829D03*
X1847441Y1711108D03*
X1853819Y1696502D03*
G54D240*
X1866575Y1673366D03*
G54D257*
X1985709Y1551496D03*
X1981772D03*
X2057953Y1657520D03*
X2054016D03*
X1801614Y1661063D03*
X1805551D03*
X1797677Y1666299D03*
X1801614D03*
X2032559Y1647559D03*
X2036496D03*
X1970866Y1537874D03*
X1966929D03*
X1853858Y1674606D03*
X1857795D03*
X1968189Y1515787D03*
X1964252D03*
X1923268Y1565433D03*
X1927205D03*
X1838543Y1694961D03*
X1842480D03*
X1854252Y1682874D03*
X1858189D03*
X1844606D03*
X1848543D03*
X1987087Y1506575D03*
X1983150D03*
X1972126Y1507205D03*
X1968189D03*
G54D258*
X2029055Y1532992D03*
Y1536929D03*
X1827323Y1643465D03*
Y1639528D03*
X1992244Y1549803D03*
Y1545866D03*
X2039016Y1685984D03*
Y1682047D03*
X2122362Y1625551D03*
Y1621614D03*
X2020079Y1644803D03*
Y1648740D03*
X1839213Y1655315D03*
Y1659252D03*
X1834134Y1655315D03*
Y1659252D03*
X1852598Y1668780D03*
Y1664843D03*
X1906102Y1637874D03*
Y1641811D03*
X1901102Y1641732D03*
Y1637795D03*
X2105984Y1533622D03*
Y1537559D03*
X2020118Y1674843D03*
Y1678780D03*
G54D264*
X1852683Y1655472D03*
G54D284*
X1836851Y1665984D03*
X1844725D03*
G54D289*
X1840788Y1675827D03*
G54D336*
X1817677Y1574409D03*
Y1580315D03*
Y1586220D03*
Y1609843D03*
Y1633465D03*
Y1639370D03*
X1765709Y1627559D03*
Y1615748D03*
Y1598031D03*
Y1574409D03*
X2130197Y1592244D03*
G54D337*
X1817677Y1645276D03*
X1765709D03*
X2130197Y1609961D03*
Y1568622D03*
G54D338*
X1812362Y1652165D03*
X1771024D03*
X2137087Y1615276D03*
Y1563307D03*
G54D339*
X1794646Y1652165D03*
X2207953Y1615276D03*
X2202047D03*
X2196142D03*
X2172520D03*
X2148898D03*
X2142992D03*
X2154803Y1563307D03*
X2166614D03*
X2184331D03*
X2207953D03*
G54D351*
X1939173Y1480000D03*
Y1482756D03*
Y1485512D03*
Y1488268D03*
Y1491024D03*
Y1493780D03*
Y1496535D03*
Y1499291D03*
Y1502047D03*
Y1504803D03*
Y1507559D03*
Y1510315D03*
Y1513071D03*
Y1515827D03*
Y1518583D03*
Y1521339D03*
Y1524094D03*
Y1526850D03*
Y1529606D03*
Y1532362D03*
Y1535118D03*
Y1537874D03*
Y1540630D03*
Y1543386D03*
Y1546142D03*
Y1548898D03*
Y1551654D03*
Y1554409D03*
Y1557165D03*
Y1559921D03*
Y1562677D03*
Y1565433D03*
Y1568189D03*
G74*
X0Y0D02*
M02*
