*
*
G04 PADS 9.5 Build Number: 522968 generated Gerber (RS-274-X) file*
G04 PC Version=2.1*
*
%IN "SCAN_V2.01.pcb"*%
*
%MOIN*%
*
%FSLAX35Y35*%
*
*
*
*
G04 PC Standard Apertures*
*
*
G04 Thermal Relief Aperture macro.*
%AMTER*
1,1,$1,0,0*
1,0,$1-$2,0,0*
21,0,$3,$4,0,0,45*
21,0,$3,$4,0,0,135*
%
*
*
G04 Annular Aperture macro.*
%AMANN*
1,1,$1,0,0*
1,0,$2,0,0*
%
*
*
G04 Odd Aperture macro.*
%AMODD*
1,1,$1,0,0*
1,0,$1-0.005,0,0*
%
*
*
G04 PC Custom Aperture Macros*
*
*
*
*
*
*
G04 PC Aperture Table*
*
%ADD010C,0.006*%
%ADD011C,0.005*%
%ADD012C,0.008*%
%ADD013C,0.001*%
%ADD023C,0.01*%
%ADD027C,0.007*%
%ADD036C,0.00591*%
%ADD038C,0.00591*%
%ADD291C,0.00787*%
%ADD321C,0.00197*%
*
*
*
*
G04 PC Circuitry*
G04 Layer Name SCAN_V2.01.pcb - circuitry*
%LPD*%
*
*
G04 PC Custom Flashes*
G04 Layer Name SCAN_V2.01.pcb - flashes*
%LPD*%
*
*
G04 PC Circuitry*
G04 Layer Name SCAN_V2.01.pcb - circuitry*
%LPD*%
*
G54D10*
G01X2209220Y1596137D02*
Y1588137D01*
X2213220*
Y1596137*
X2209220*
X2127724Y1621597D02*
Y1615197D01*
G75*
G03X2131724I2000J1751D01*
G01Y1621597*
X2131726Y1621595D02*
G03X2127726Y1621599I-2002J-1764D01*
G01X2221861Y1591893D02*
X2215461D01*
G03Y1587893I1751J-2000*
G01X2221861*
X2221860Y1587892D02*
G03X2221863Y1591892I-1765J2001D01*
G01X2086024Y1675495D02*
Y1656495D01*
X2066024*
Y1675495*
X2074524*
Y1675418*
G03X2077524I1500J0*
G01X2077524D02*
Y1675495D01*
X2086024*
X2084824Y1673245D02*
G03X2084824I-800J0D01*
G01X2083444Y1678220D02*
X2085944Y1679020D01*
Y1677420*
X2083544Y1678220*
X2047213Y1575180D02*
Y1568780D01*
G03X2051213I2000J1751*
G01Y1575180*
X2051214Y1575178D02*
G03X2047214Y1575181I-2001J-1765D01*
G01X2090780Y1682783D02*
Y1690783D01*
X2086780*
Y1682783*
X2090780*
X2084323D02*
Y1690783D01*
X2080323*
Y1682783*
X2084323*
X2089236Y1577169D02*
X2081236D01*
Y1573169*
X2089236*
Y1577169*
X2033866Y1632818D02*
Y1626418D01*
G03X2037866I2000J1750*
G01Y1632818*
X2037868Y1632816D02*
G03X2033868Y1632819I-2002J-1765D01*
G01X1805535Y1603547D02*
X1797535D01*
Y1599547*
X1805535*
Y1603547*
X1829402Y1619331D02*
Y1625731D01*
G03X1825402I-2000J-1751*
G01Y1619331*
X1825400Y1619333D02*
G03X1829400Y1619329I2002J1764D01*
G01X1794123Y1594310D02*
X1800523D01*
G03Y1598310I-1751J2000*
G01X1794123*
X1794125Y1598312D02*
G03X1794121Y1594312I1764J-2002D01*
G01X2013693Y1530748D02*
Y1537148D01*
G03X2009693I-2000J-1751*
G01Y1530748*
X2009691Y1530750D02*
G03X2013691Y1530746I2002J1765D01*
G01X1941843Y1574606D02*
Y1581006D01*
G03X1937843I-2000J-1750*
G01Y1574606*
X1937841Y1574608D02*
G03X1941841Y1574605I2002J1765D01*
G01X1996551Y1544625D02*
X2004551D01*
Y1548625*
X1996551*
Y1544625*
X2119614Y1613657D02*
Y1605657D01*
X2123614*
Y1613657*
X2119614*
X1985732Y1535436D02*
X1977732D01*
Y1531436*
X1985732*
Y1535436*
X1978532Y1536436D02*
X1984932D01*
G03Y1540436I-1751J2000*
G01X1978532*
X1978534Y1540438D02*
G03X1978531Y1536438I1765J-2002D01*
G01X2118378Y1602481D02*
Y1608881D01*
G03X2114378I-2000J-1751*
G01Y1602481*
X2114376Y1602482D02*
G03X2118376Y1602479I2002J1765D01*
G01X1954677Y1617402D02*
Y1623802D01*
G03X1950677I-2000J-1751*
G01Y1617402*
X1950676Y1617404D02*
G03X1954676Y1617400I2001J1764D01*
G01X1945165Y1680219D02*
Y1673819D01*
G03X1949165I2000J1751*
G01Y1680219*
X1949167Y1680217D02*
G03X1945167Y1680221I-2002J-1764D01*
G01X1961646Y1673019D02*
Y1681019D01*
X1957646*
Y1673019*
X1961646*
X1969992D02*
Y1681019D01*
X1965992*
Y1673019*
X1969992*
X1990937Y1534016D02*
Y1540416D01*
G03X1986937I-2000J-1751*
G01Y1534016*
X1986935Y1534018D02*
G03X1990935Y1534014I2002J1764D01*
G01X1928043Y1618035D02*
X1921643D01*
G03Y1614035I1750J-2000*
G01X1928043*
X1928041Y1614033D02*
G03X1928044Y1618033I-1765J2002D01*
G01X1883717Y1616594D02*
X1891717D01*
Y1620594*
X1883717*
Y1616594*
X1955110Y1672901D02*
Y1680901D01*
X1951110*
Y1672901*
X1955110*
X2006524Y1550295D02*
X2012924D01*
G03Y1554295I-1750J2000*
G01X2006524*
X2006526Y1554296D02*
G03X2006523Y1550296I1765J-2001D01*
G01X1962685Y1534799D02*
Y1526799D01*
X1966685*
Y1534799*
X1962685*
X1843436Y1545082D02*
X1837036D01*
G03Y1541082I1751J-2000*
G01X1843436*
X1843434Y1541081D02*
G03X1843438Y1545081I-1764J2001D01*
G01X1822902Y1544822D02*
X1829302D01*
G03Y1548822I-1751J2000*
G01X1822902*
X1822904Y1548824D02*
G03X1822901Y1544824I1765J-2002D01*
G01X1850740Y1577008D02*
Y1583408D01*
G03X1846740I-2000J-1751*
G01Y1577008*
X1846739Y1577010D02*
G03X1850739Y1577006I2001J1764D01*
G01X1845248Y1559932D02*
X1826248D01*
Y1579932*
X1845248*
Y1571432*
X1845171*
G03Y1568432I0J-1500*
G01X1845248*
Y1559932*
X1843798Y1561932D02*
G03X1843798I-800J0D01*
G01X1847972Y1562512D02*
X1848772Y1560012D01*
X1847172*
X1847972Y1562412*
X1838397Y1601381D02*
X1831997D01*
G03Y1597381I1751J-2000*
G01X1838397*
X1838395Y1597380D02*
G03X1838399Y1601380I-1764J2001D01*
G01X1838397Y1596342D02*
X1831997D01*
G03Y1592342I1751J-2000*
G01X1838397*
X1838395Y1592340D02*
G03X1838399Y1596340I-1764J2002D01*
G01X1843436Y1540161D02*
X1837036D01*
G03Y1536161I1751J-2000*
G01X1843436*
X1843434Y1536159D02*
G03X1843438Y1540159I-1764J2002D01*
G01X1840024Y1527523D02*
X1832024D01*
Y1523523*
X1840024*
Y1527523*
X1830102Y1540279D02*
X1822102D01*
Y1536279*
X1830102*
Y1540279*
X1856047Y1612169D02*
X1848047D01*
Y1608169*
X1856047*
Y1612169*
X1831118Y1608169D02*
X1839118D01*
Y1612169*
X1831118*
Y1608169*
Y1603247D02*
X1839118D01*
Y1607247*
X1831118*
Y1603247*
X1855160Y1553973D02*
X1851678D01*
X1855160D02*
Y1554912D01*
X1854994Y1555315*
X1854663Y1555583*
X1854331Y1555718*
X1853834Y1555852*
X1853004*
X1852507Y1555718*
X1852175Y1555583*
X1851844Y1555315*
X1851678Y1554912*
Y1553973*
X1854331Y1557194D02*
X1854497D01*
X1854828Y1557328*
X1854994Y1557463*
X1855160Y1557731*
Y1558268*
X1854994Y1558536*
X1854828Y1558671*
X1854497Y1558805*
X1854165*
X1853834Y1558671*
X1853336Y1558402*
X1851678Y1557060*
Y1558939*
G54D11*
X2212900Y1600616D02*
Y1597663D01*
Y1600616D02*
X2211877D01*
X2211536Y1600475*
X2211422Y1600335*
X2211309Y1600053*
Y1599772*
X2211422Y1599491*
X2211536Y1599350*
X2211877Y1599210*
X2212900*
X2212104D02*
X2211309Y1597663D01*
X2208695Y1600616D02*
X2209831Y1597663D01*
X2210286Y1600616D02*
X2208695D01*
X2134699Y1619322D02*
X2134813Y1619603D01*
X2135040Y1619885*
X2135267Y1620025*
X2135722*
X2135949Y1619885*
X2136176Y1619603*
X2136290Y1619322*
X2136404Y1618900*
Y1618197*
X2136290Y1617775*
X2136176Y1617494*
X2135949Y1617213*
X2135722Y1617072*
X2135267*
X2135040Y1617213*
X2134813Y1617494*
X2134699Y1617775*
X2133676Y1619463D02*
X2133449Y1619603D01*
X2133108Y1620025*
Y1617072*
X2219030Y1595700D02*
X2219143Y1595981D01*
X2219371Y1596263*
X2219598Y1596403*
X2220052*
X2220280Y1596263*
X2220507Y1595981*
X2220621Y1595700*
X2220734Y1595278*
Y1594575*
X2220621Y1594153*
X2220507Y1593872*
X2220280Y1593591*
X2220052Y1593450*
X2219598*
X2219371Y1593591*
X2219143Y1593872*
X2219030Y1594153*
X2217893Y1595700D02*
Y1595841D01*
X2217780Y1596122*
X2217666Y1596263*
X2217439Y1596403*
X2216984*
X2216757Y1596263*
X2216643Y1596122*
X2216530Y1595841*
Y1595560*
X2216643Y1595278*
X2216871Y1594856*
X2218007Y1593450*
X2216416*
X2079868Y1653175D02*
Y1651066D01*
X2079754Y1650644*
X2079527Y1650362*
X2079186Y1650222*
X2078959*
X2078618Y1650362*
X2078391Y1650644*
X2078277Y1651066*
Y1653175*
X2077141Y1652472D02*
Y1652612D01*
X2077027Y1652894*
X2076914Y1653034*
X2076686Y1653175*
X2076232*
X2076004Y1653034*
X2075891Y1652894*
X2075777Y1652612*
Y1652331*
X2075891Y1652050*
X2076118Y1651628*
X2077254Y1650222*
X2075664*
X2074527Y1652472D02*
Y1652612D01*
X2074414Y1652894*
X2074300Y1653034*
X2074073Y1653175*
X2073618*
X2073391Y1653034*
X2073277Y1652894*
X2073164Y1652612*
Y1652331*
X2073277Y1652050*
X2073504Y1651628*
X2074641Y1650222*
X2073050*
X2056195Y1573338D02*
X2056309Y1573619D01*
X2056536Y1573900*
X2056763Y1574041*
X2057218*
X2057445Y1573900*
X2057672Y1573619*
X2057786Y1573338*
X2057900Y1572916*
Y1572213*
X2057786Y1571791*
X2057672Y1571510*
X2057445Y1571229*
X2057218Y1571088*
X2056763*
X2056536Y1571229*
X2056309Y1571510*
X2056195Y1571791*
X2055172Y1573479D02*
X2054945Y1573619D01*
X2054604Y1574041*
Y1571088*
X2053013Y1574041D02*
X2053354Y1573900D01*
X2053468Y1573619*
Y1573338*
X2053354Y1573057*
X2053127Y1572916*
X2052672Y1572775*
X2052331Y1572635*
X2052104Y1572354*
X2051991Y1572072*
Y1571650*
X2052104Y1571369*
X2052218Y1571229*
X2052559Y1571088*
X2053013*
X2053354Y1571229*
X2053468Y1571369*
X2053581Y1571650*
Y1572072*
X2053468Y1572354*
X2053241Y1572635*
X2052900Y1572775*
X2052445Y1572916*
X2052218Y1573057*
X2052104Y1573338*
Y1573619*
X2052218Y1573900*
X2052559Y1574041*
X2053013*
X2090537Y1695301D02*
Y1692348D01*
Y1695301D02*
X2089515D01*
X2089174Y1695160*
X2089060Y1695020*
X2088946Y1694738*
Y1694457*
X2089060Y1694176*
X2089174Y1694035*
X2089515Y1693895*
X2090537*
X2089742D02*
X2088946Y1692348D01*
X2087810Y1694598D02*
Y1694738D01*
X2087696Y1695020*
X2087583Y1695160*
X2087356Y1695301*
X2086901*
X2086674Y1695160*
X2086560Y1695020*
X2086446Y1694738*
Y1694457*
X2086560Y1694176*
X2086787Y1693754*
X2087924Y1692348*
X2086333*
X2084711Y1695065D02*
Y1692112D01*
Y1695065D02*
X2083688D01*
X2083347Y1694924*
X2083233Y1694783*
X2083120Y1694502*
Y1694221*
X2083233Y1693940*
X2083347Y1693799*
X2083688Y1693658*
X2084711*
X2083915D02*
X2083120Y1692112D01*
X2081983Y1694362D02*
Y1694502D01*
X2081870Y1694783*
X2081756Y1694924*
X2081529Y1695065*
X2081074*
X2080847Y1694924*
X2080733Y1694783*
X2080620Y1694502*
Y1694221*
X2080733Y1693940*
X2080961Y1693518*
X2082097Y1692112*
X2080506*
X2078006Y1695065D02*
X2079142D01*
X2079256Y1693799*
X2079142Y1693940*
X2078802Y1694080*
X2078461*
X2078120Y1693940*
X2077892Y1693658*
X2077779Y1693237*
X2077892Y1692955*
X2078006Y1692533*
X2078233Y1692252*
X2078574Y1692112*
X2078915*
X2079256Y1692252*
X2079370Y1692393*
X2079483Y1692674*
X2086089Y1581915D02*
Y1578962D01*
Y1581915D02*
X2085066D01*
X2084725Y1581775*
X2084611Y1581634*
X2084498Y1581353*
Y1581071*
X2084611Y1580790*
X2084725Y1580650*
X2085066Y1580509*
X2086089*
X2085293D02*
X2084498Y1578962D01*
X2083475Y1581353D02*
X2083248Y1581493D01*
X2082907Y1581915*
Y1578962*
X2043203Y1630818D02*
X2043317Y1631100D01*
X2043544Y1631381*
X2043771Y1631521*
X2044226*
X2044453Y1631381*
X2044680Y1631100*
X2044794Y1630818*
X2044907Y1630396*
Y1629693*
X2044794Y1629271*
X2044680Y1628990*
X2044453Y1628709*
X2044226Y1628568*
X2043771*
X2043544Y1628709*
X2043317Y1628990*
X2043203Y1629271*
X2042180Y1630959D02*
X2041953Y1631100D01*
X2041612Y1631521*
Y1628568*
X2039112Y1631521D02*
X2040248D01*
X2040362Y1630256*
X2040248Y1630396*
X2039907Y1630537*
X2039567*
X2039226Y1630396*
X2038998Y1630115*
X2038885Y1629693*
X2038998Y1629412*
X2039112Y1628990*
X2039339Y1628709*
X2039680Y1628568*
X2040021*
X2040362Y1628709*
X2040476Y1628850*
X2040589Y1629131*
X1783189Y1604670D02*
Y1601389D01*
Y1604670D02*
X1782166D01*
X1781825Y1604514*
X1781712Y1604358*
X1781598Y1604045*
Y1603733*
X1781712Y1603420*
X1781825Y1603264*
X1782166Y1603108*
X1783189D02*
X1782166D01*
X1781825Y1602952*
X1781712Y1602795*
X1781598Y1602483*
Y1602014*
X1781712Y1601702*
X1781825Y1601545*
X1782166Y1601389*
X1783189*
X1779780Y1604670D02*
Y1601389D01*
X1780575Y1604670D02*
X1778984D01*
X1777734D02*
X1776484D01*
X1777166Y1603420*
X1776825*
X1776598Y1603264*
X1776484Y1603108*
X1776371Y1602639*
Y1602327*
X1776484Y1601858*
X1776712Y1601545*
X1777053Y1601389*
X1777394*
X1777734Y1601545*
X1777848Y1601702*
X1777962Y1602014*
X1795774Y1603096D02*
Y1600143D01*
Y1603096D02*
X1794751D01*
X1794410Y1602956*
X1794296Y1602815*
X1794183Y1602534*
Y1602252*
X1794296Y1601971*
X1794410Y1601831*
X1794751Y1601690*
X1795774*
X1794978D02*
X1794183Y1600143D01*
X1793160Y1602534D02*
X1792933Y1602674D01*
X1792592Y1603096*
Y1600143*
X1790092Y1603096D02*
X1791228D01*
X1791342Y1601831*
X1791228Y1601971*
X1790887Y1602112*
X1790546*
X1790205Y1601971*
X1789978Y1601690*
X1789865Y1601268*
X1789978Y1600987*
X1790092Y1600565*
X1790319Y1600284*
X1790660Y1600143*
X1791001*
X1791342Y1600284*
X1791455Y1600424*
X1791569Y1600706*
X1834345Y1617708D02*
X1834458Y1617989D01*
X1834686Y1618271*
X1834913Y1618411*
X1835367*
X1835595Y1618271*
X1835822Y1617989*
X1835936Y1617708*
X1836049Y1617286*
Y1616583*
X1835936Y1616161*
X1835822Y1615880*
X1835595Y1615599*
X1835367Y1615458*
X1834913*
X1834686Y1615599*
X1834458Y1615880*
X1834345Y1616161*
X1833208Y1617708D02*
Y1617849D01*
X1833095Y1618130*
X1832981Y1618271*
X1832754Y1618411*
X1832299*
X1832072Y1618271*
X1831958Y1618130*
X1831845Y1617849*
Y1617567*
X1831958Y1617286*
X1832186Y1616864*
X1833322Y1615458*
X1831731*
X1830481Y1618411D02*
X1829231D01*
X1829913Y1617286*
X1829572*
X1829345Y1617146*
X1829231Y1617005*
X1829117Y1616583*
Y1616302*
X1829231Y1615880*
X1829458Y1615599*
X1829799Y1615458*
X1830140*
X1830481Y1615599*
X1830595Y1615739*
X1830708Y1616021*
X1789542Y1597275D02*
X1789655Y1597556D01*
X1789882Y1597838*
X1790110Y1597978*
X1790564*
X1790792Y1597838*
X1791019Y1597556*
X1791132Y1597275*
X1791246Y1596853*
Y1596150*
X1791132Y1595728*
X1791019Y1595447*
X1790792Y1595166*
X1790564Y1595025*
X1790110*
X1789882Y1595166*
X1789655Y1595447*
X1789542Y1595728*
X1788405Y1597275D02*
Y1597416D01*
X1788292Y1597697*
X1788178Y1597838*
X1787951Y1597978*
X1787496*
X1787269Y1597838*
X1787155Y1597697*
X1787042Y1597416*
Y1597134*
X1787155Y1596853*
X1787382Y1596431*
X1788519Y1595025*
X1786928*
X1784769Y1597978D02*
X1785905Y1596009D01*
X1784201*
X1784769Y1597978D02*
Y1595025D01*
X2017612Y1534480D02*
X2017726Y1534761D01*
X2017953Y1535042*
X2018181Y1535183*
X2018635*
X2018862Y1535042*
X2019090Y1534761*
X2019203Y1534480*
X2019317Y1534058*
Y1533355*
X2019203Y1532933*
X2019090Y1532652*
X2018862Y1532370*
X2018635Y1532230*
X2018181*
X2017953Y1532370*
X2017726Y1532652*
X2017612Y1532933*
X2015453Y1535183D02*
X2016590Y1533214D01*
X2014885*
X2015453Y1535183D02*
Y1532230D01*
X1934660Y1578377D02*
X1934773Y1578659D01*
X1935001Y1578940*
X1935228Y1579080*
X1935682*
X1935910Y1578940*
X1936137Y1578659*
X1936251Y1578377*
X1936364Y1577955*
Y1577252*
X1936251Y1576830*
X1936137Y1576549*
X1935910Y1576268*
X1935682Y1576127*
X1935228*
X1935001Y1576268*
X1934773Y1576549*
X1934660Y1576830*
X1933637Y1578518D02*
X1933410Y1578659D01*
X1933069Y1579080*
Y1576127*
X1930682Y1578659D02*
X1930796Y1578940D01*
X1931137Y1579080*
X1931364*
X1931705Y1578940*
X1931932Y1578518*
X1932046Y1577815*
Y1577112*
X1931932Y1576549*
X1931705Y1576268*
X1931364Y1576127*
X1931251*
X1930910Y1576268*
X1930682Y1576549*
X1930569Y1576971*
Y1577112*
X1930682Y1577534*
X1930910Y1577815*
X1931251Y1577955*
X1931364*
X1931705Y1577815*
X1931932Y1577534*
X1932046Y1577112*
X2001600Y1552663D02*
Y1549710D01*
Y1552663D02*
X2000578D01*
X2000237Y1552523*
X2000123Y1552382*
X2000009Y1552101*
Y1551819*
X2000123Y1551538*
X2000237Y1551398*
X2000578Y1551257*
X2001600*
X2000805D02*
X2000009Y1549710D01*
X1997850Y1552663D02*
X1998987Y1550694D01*
X1997282*
X1997850Y1552663D02*
Y1549710D01*
X2123569Y1618411D02*
Y1615458D01*
Y1618411D02*
X2122546D01*
X2122205Y1618271*
X2122092Y1618130*
X2121978Y1617849*
Y1617567*
X2122092Y1617286*
X2122205Y1617146*
X2122546Y1617005*
X2123569*
X2122773D02*
X2121978Y1615458D01*
X2120955Y1617849D02*
X2120728Y1617989D01*
X2120387Y1618411*
Y1615458*
X2117887Y1617427D02*
X2118001Y1617005D01*
X2118228Y1616724*
X2118569Y1616583*
X2118683*
X2119023Y1616724*
X2119251Y1617005*
X2119364Y1617427*
Y1617567*
X2119251Y1617989*
X2119023Y1618271*
X2118683Y1618411*
X2118569*
X2118228Y1618271*
X2118001Y1617989*
X2117887Y1617427*
Y1616724*
X2118001Y1616021*
X2118228Y1615599*
X2118569Y1615458*
X2118796*
X2119137Y1615599*
X2119251Y1615880*
X1983333Y1529947D02*
Y1526994D01*
Y1529947D02*
X1982310D01*
X1981969Y1529806*
X1981855Y1529665*
X1981742Y1529384*
Y1529103*
X1981855Y1528822*
X1981969Y1528681*
X1982310Y1528540*
X1983333*
X1982537D02*
X1981742Y1526994D01*
X1979242Y1528962D02*
X1979355Y1528540D01*
X1979583Y1528259*
X1979924Y1528119*
X1980037*
X1980378Y1528259*
X1980605Y1528540*
X1980719Y1528962*
Y1529103*
X1980605Y1529525*
X1980378Y1529806*
X1980037Y1529947*
X1979924*
X1979583Y1529806*
X1979355Y1529525*
X1979242Y1528962*
Y1528259*
X1979355Y1527556*
X1979583Y1527134*
X1979924Y1526994*
X1980151*
X1980492Y1527134*
X1980605Y1527415*
X1982219Y1544086D02*
X1982332Y1544367D01*
X1982560Y1544649*
X1982787Y1544789*
X1983241*
X1983469Y1544649*
X1983696Y1544367*
X1983810Y1544086*
X1983923Y1543664*
Y1542961*
X1983810Y1542539*
X1983696Y1542258*
X1983469Y1541977*
X1983241Y1541836*
X1982787*
X1982560Y1541977*
X1982332Y1542258*
X1982219Y1542539*
X1981196Y1544227D02*
X1980969Y1544367D01*
X1980628Y1544789*
Y1541836*
X1979491Y1544086D02*
Y1544227D01*
X1979378Y1544508*
X1979264Y1544649*
X1979037Y1544789*
X1978582*
X1978355Y1544649*
X1978241Y1544508*
X1978128Y1544227*
Y1543945*
X1978241Y1543664*
X1978469Y1543242*
X1979605Y1541836*
X1978014*
X2115329Y1613810D02*
X2115443Y1614092D01*
X2115670Y1614373*
X2115897Y1614514*
X2116352*
X2116579Y1614373*
X2116806Y1614092*
X2116920Y1613810*
X2117033Y1613389*
Y1612685*
X2116920Y1612264*
X2116806Y1611982*
X2116579Y1611701*
X2116352Y1611560*
X2115897*
X2115670Y1611701*
X2115443Y1611982*
X2115329Y1612264*
X2114193Y1613810D02*
Y1613951D01*
X2114079Y1614232*
X2113965Y1614373*
X2113738Y1614514*
X2113283*
X2113056Y1614373*
X2112943Y1614232*
X2112829Y1613951*
Y1613670*
X2112943Y1613389*
X2113170Y1612967*
X2114306Y1611560*
X2112715*
X2110102Y1614514D02*
X2111238Y1611560D01*
X2111693Y1614514D02*
X2110102D01*
X1946786Y1621015D02*
X1946899Y1621296D01*
X1947127Y1621578*
X1947354Y1621718*
X1947808*
X1948036Y1621578*
X1948263Y1621296*
X1948377Y1621015*
X1948490Y1620593*
Y1619890*
X1948377Y1619468*
X1948263Y1619187*
X1948036Y1618906*
X1947808Y1618765*
X1947354*
X1947127Y1618906*
X1946899Y1619187*
X1946786Y1619468*
X1945763Y1621156D02*
X1945536Y1621296D01*
X1945195Y1621718*
Y1618765*
X1942695Y1620734D02*
X1942808Y1620312D01*
X1943036Y1620031*
X1943377Y1619890*
X1943490*
X1943831Y1620031*
X1944058Y1620312*
X1944172Y1620734*
Y1620875*
X1944058Y1621296*
X1943831Y1621578*
X1943490Y1621718*
X1943377*
X1943036Y1621578*
X1942808Y1621296*
X1942695Y1620734*
Y1620031*
X1942808Y1619328*
X1943036Y1618906*
X1943377Y1618765*
X1943604*
X1943945Y1618906*
X1944058Y1619187*
X1947022Y1685110D02*
X1947135Y1685391D01*
X1947363Y1685672*
X1947590Y1685813*
X1948045*
X1948272Y1685672*
X1948499Y1685391*
X1948613Y1685110*
X1948726Y1684688*
Y1683985*
X1948613Y1683563*
X1948499Y1683282*
X1948272Y1683000*
X1948045Y1682860*
X1947590*
X1947363Y1683000*
X1947135Y1683282*
X1947022Y1683563*
X1944522Y1685813D02*
X1945658D01*
X1945772Y1684547*
X1945658Y1684688*
X1945317Y1684828*
X1944976*
X1944635Y1684688*
X1944408Y1684407*
X1944295Y1683985*
X1944408Y1683703*
X1944522Y1683282*
X1944749Y1683000*
X1945090Y1682860*
X1945431*
X1945772Y1683000*
X1945885Y1683141*
X1945999Y1683422*
X1962270Y1685892D02*
Y1682938D01*
Y1685892D02*
X1961247D01*
X1960906Y1685751*
X1960792Y1685610*
X1960679Y1685329*
Y1685048*
X1960792Y1684767*
X1960906Y1684626*
X1961247Y1684485*
X1962270*
X1961474D02*
X1960679Y1682938D01*
X1958292Y1685470D02*
X1958406Y1685751D01*
X1958747Y1685892*
X1958974*
X1959315Y1685751*
X1959542Y1685329*
X1959656Y1684626*
Y1683923*
X1959542Y1683360*
X1959315Y1683079*
X1958974Y1682938*
X1958861*
X1958520Y1683079*
X1958292Y1683360*
X1958179Y1683782*
Y1683923*
X1958292Y1684345*
X1958520Y1684626*
X1958861Y1684767*
X1958974*
X1959315Y1684626*
X1959542Y1684345*
X1959656Y1683923*
X2002742Y1527506D02*
X2001833Y1526099D01*
Y1524553*
X2000924Y1527506D02*
X2001833Y1526099D01*
X1999901Y1526943D02*
X1999674Y1527084D01*
X1999333Y1527506*
Y1524553*
X1970144Y1686049D02*
Y1683096D01*
Y1686049D02*
X1969121D01*
X1968780Y1685908*
X1968666Y1685768*
X1968553Y1685486*
Y1685205*
X1968666Y1684924*
X1968780Y1684783*
X1969121Y1684643*
X1970144*
X1969348D02*
X1968553Y1683096D01*
X1967530Y1685486D02*
X1967303Y1685627D01*
X1966962Y1686049*
Y1683096*
X1965257Y1686049D02*
X1965598Y1685908D01*
X1965826Y1685486*
X1965939Y1684783*
Y1684361*
X1965826Y1683658*
X1965598Y1683236*
X1965257Y1683096*
X1965030*
X1964689Y1683236*
X1964462Y1683658*
X1964348Y1684361*
Y1684783*
X1964462Y1685486*
X1964689Y1685908*
X1965030Y1686049*
X1965257*
X1988990Y1545110D02*
X1989104Y1545391D01*
X1989331Y1545672*
X1989559Y1545813*
X1990013*
X1990240Y1545672*
X1990468Y1545391*
X1990581Y1545110*
X1990695Y1544688*
Y1543985*
X1990581Y1543563*
X1990468Y1543282*
X1990240Y1543000*
X1990013Y1542860*
X1989559*
X1989331Y1543000*
X1989104Y1543282*
X1988990Y1543563*
X1987399Y1545813D02*
X1987740Y1545672D01*
X1987854Y1545391*
Y1545110*
X1987740Y1544828*
X1987513Y1544688*
X1987059Y1544547*
X1986718Y1544407*
X1986490Y1544125*
X1986377Y1543844*
Y1543422*
X1986490Y1543141*
X1986604Y1543000*
X1986945Y1542860*
X1987399*
X1987740Y1543000*
X1987854Y1543141*
X1987968Y1543422*
Y1543844*
X1987854Y1544125*
X1987627Y1544407*
X1987286Y1544547*
X1986831Y1544688*
X1986604Y1544828*
X1986490Y1545110*
Y1545391*
X1986604Y1545672*
X1986945Y1545813*
X1987399*
X1895512Y1648135D02*
Y1645791D01*
X1895398Y1645322*
X1895171Y1645010*
X1894830Y1644854*
X1894603*
X1894262Y1645010*
X1894035Y1645322*
X1893921Y1645791*
Y1648135*
X1892330D02*
X1892671Y1647979D01*
X1892785Y1647666*
Y1647354*
X1892671Y1647041*
X1892444Y1646885*
X1891989Y1646729*
X1891648Y1646572*
X1891421Y1646260*
X1891307Y1645947*
Y1645479*
X1891421Y1645166*
X1891535Y1645010*
X1891875Y1644854*
X1892330*
X1892671Y1645010*
X1892785Y1645166*
X1892898Y1645479*
Y1645947*
X1892785Y1646260*
X1892557Y1646572*
X1892216Y1646729*
X1891762Y1646885*
X1891535Y1647041*
X1891421Y1647354*
Y1647666*
X1891535Y1647979*
X1891875Y1648135*
X1892330*
X1926195Y1622078D02*
X1926309Y1622359D01*
X1926536Y1622641*
X1926763Y1622781*
X1927218*
X1927445Y1622641*
X1927672Y1622359*
X1927786Y1622078*
X1927900Y1621656*
Y1620953*
X1927786Y1620531*
X1927672Y1620250*
X1927445Y1619969*
X1927218Y1619828*
X1926763*
X1926536Y1619969*
X1926309Y1620250*
X1926195Y1620531*
X1925059Y1622078D02*
Y1622219D01*
X1924945Y1622500*
X1924831Y1622641*
X1924604Y1622781*
X1924150*
X1923922Y1622641*
X1923809Y1622500*
X1923695Y1622219*
Y1621938*
X1923809Y1621656*
X1924036Y1621234*
X1925172Y1619828*
X1923581*
X1921991Y1622781D02*
X1922331Y1622641D01*
X1922445Y1622359*
Y1622078*
X1922331Y1621797*
X1922104Y1621656*
X1921650Y1621516*
X1921309Y1621375*
X1921081Y1621094*
X1920968Y1620813*
Y1620391*
X1921081Y1620109*
X1921195Y1619969*
X1921536Y1619828*
X1921991*
X1922331Y1619969*
X1922445Y1620109*
X1922559Y1620391*
Y1620813*
X1922445Y1621094*
X1922218Y1621375*
X1921877Y1621516*
X1921422Y1621656*
X1921195Y1621797*
X1921081Y1622078*
Y1622359*
X1921195Y1622641*
X1921536Y1622781*
X1921991*
X1881994Y1620104D02*
Y1617151D01*
Y1620104D02*
X1880971D01*
X1880630Y1619963*
X1880517Y1619823*
X1880403Y1619542*
Y1619260*
X1880517Y1618979*
X1880630Y1618838*
X1880971Y1618698*
X1881994*
X1881199D02*
X1880403Y1617151D01*
X1879267Y1619401D02*
Y1619542D01*
X1879153Y1619823*
X1879040Y1619963*
X1878812Y1620104*
X1878358*
X1878130Y1619963*
X1878017Y1619823*
X1877903Y1619542*
Y1619260*
X1878017Y1618979*
X1878244Y1618557*
X1879380Y1617151*
X1877790*
X1876199Y1620104D02*
X1876540Y1619963D01*
X1876653Y1619682*
Y1619401*
X1876540Y1619120*
X1876312Y1618979*
X1875858Y1618838*
X1875517Y1618698*
X1875290Y1618417*
X1875176Y1618135*
Y1617713*
X1875290Y1617432*
X1875403Y1617292*
X1875744Y1617151*
X1876199*
X1876540Y1617292*
X1876653Y1617432*
X1876767Y1617713*
Y1618135*
X1876653Y1618417*
X1876426Y1618698*
X1876085Y1618838*
X1875630Y1618979*
X1875403Y1619120*
X1875290Y1619401*
Y1619682*
X1875403Y1619963*
X1875744Y1620104*
X1876199*
X1956837Y1685970D02*
Y1683017D01*
Y1685970D02*
X1955814D01*
X1955473Y1685830*
X1955359Y1685689*
X1955246Y1685408*
Y1685126*
X1955246D02*
X1955359Y1684845D01*
X1955473Y1684705*
X1955814Y1684564*
X1956837*
X1956041D02*
X1955246Y1683017D01*
X1954109Y1685267D02*
Y1685408D01*
X1953996Y1685689*
X1953882Y1685830*
X1953655Y1685970*
X1953200*
X1952973Y1685830*
X1952859Y1685689*
X1952746Y1685408*
Y1685126*
X1952746D02*
X1952859Y1684845D01*
X1953087Y1684423*
X1954223Y1683017*
X1952632*
X1950132Y1684986D02*
X1950246Y1684564D01*
X1950473Y1684283*
X1950814Y1684142*
X1950928*
X1951268Y1684283*
X1951496Y1684564*
X1951609Y1684986*
Y1685126*
X1951609D02*
X1951496Y1685548D01*
X1951268Y1685830*
X1950928Y1685970*
X1950814*
X1950473Y1685830*
X1950246Y1685548*
X1950132Y1684986*
Y1684283*
X1950246Y1683580*
X1950473Y1683158*
X1950814Y1683017*
X1951041*
X1951382Y1683158*
X1951496Y1683439*
X1890512Y1677859D02*
Y1674578D01*
Y1677859D02*
X1889489D01*
X1889148Y1677703*
X1889035Y1677547*
X1888921Y1677234*
Y1676922*
X1889035Y1676609*
X1889148Y1676453*
X1889489Y1676297*
X1890512*
X1889716D02*
X1888921Y1674578D01*
X1887671Y1677859D02*
X1886421D01*
X1887103Y1676609*
X1886762*
X1886535Y1676453*
X1886421Y1676297*
X1886307Y1675828*
Y1675516*
X1886421Y1675047*
X1886648Y1674734*
X1886989Y1674578*
X1887330*
X1887671Y1674734*
X1887785Y1674891*
X1887898Y1675203*
X1884603Y1677859D02*
X1884944Y1677703D01*
X1885171Y1677234*
X1885285Y1676453*
Y1675984*
X1885171Y1675203*
X1884944Y1674734*
X1884603Y1674578*
X1884375*
X1884035Y1674734*
X1883807Y1675203*
X1883694Y1675984*
Y1676453*
X1883807Y1677234*
X1884035Y1677703*
X1884375Y1677859*
X1884603*
X1901732Y1677938D02*
Y1674657D01*
Y1677938D02*
X1900710D01*
X1900369Y1677782*
X1900255Y1677626*
X1900141Y1677313*
Y1677001*
X1900255Y1676688*
X1900369Y1676532*
X1900710Y1676376*
X1901732*
X1900937D02*
X1900141Y1674657D01*
X1898891Y1677938D02*
X1897641D01*
X1898323Y1676688*
X1897982*
X1897755Y1676532*
X1897641Y1676376*
X1897528Y1675907*
Y1675594*
X1897641Y1675126*
X1897869Y1674813*
X1898210Y1674657*
X1898550*
X1898891Y1674813*
X1899005Y1674969*
X1899119Y1675282*
X1896505Y1677313D02*
X1896278Y1677469D01*
X1895937Y1677938*
Y1674657*
X1879331Y1677859D02*
Y1674578D01*
Y1677859D02*
X1878308D01*
X1877967Y1677703*
X1877853Y1677547*
X1877740Y1677234*
Y1676922*
X1877853Y1676609*
X1877967Y1676453*
X1878308Y1676297*
X1879331*
X1878535D02*
X1877740Y1674578D01*
X1876490Y1677859D02*
X1875240D01*
X1875922Y1676609*
X1875581*
X1875353Y1676453*
X1875240Y1676297*
X1875126Y1675828*
Y1675516*
X1875240Y1675047*
X1875467Y1674734*
X1875808Y1674578*
X1876149*
X1876490Y1674734*
X1876603Y1674891*
X1876717Y1675203*
X1873990Y1677078D02*
Y1677234D01*
X1873876Y1677547*
X1873763Y1677703*
X1873535Y1677859*
X1873081*
X1872853Y1677703*
X1872740Y1677547*
X1872626Y1677234*
Y1676922*
X1872740Y1676609*
X1872967Y1676141*
X1874103Y1674578*
X1872513*
X1868228Y1677584D02*
Y1674303D01*
Y1677584D02*
X1867206D01*
X1866865Y1677428*
X1866751Y1677271*
X1866637Y1676959*
Y1676646*
X1866751Y1676334*
X1866865Y1676178*
X1867206Y1676021*
X1868228*
X1867433D02*
X1866637Y1674303D01*
X1865387Y1677584D02*
X1864137D01*
X1864819Y1676334*
X1864478*
X1864251Y1676178*
X1864137Y1676021*
X1864024Y1675553*
Y1675240*
X1864137Y1674771*
X1864365Y1674459*
X1864706Y1674303*
X1865047*
X1865387Y1674459*
X1865501Y1674615*
X1865615Y1674928*
X1862774Y1677584D02*
X1861524D01*
X1862206Y1676334*
X1861865*
X1861637Y1676178*
X1861524Y1676021*
X1861410Y1675553*
Y1675240*
X1861524Y1674771*
X1861751Y1674459*
X1862092Y1674303*
X1862433*
X1862774Y1674459*
X1862887Y1674615*
X1863001Y1674928*
X2018754Y1552944D02*
X2018868Y1553226D01*
X2019095Y1553507*
X2019322Y1553647*
X2019777*
X2020004Y1553507*
X2020231Y1553226*
X2020345Y1552944*
X2020459Y1552522*
Y1551819*
X2020345Y1551397*
X2020231Y1551116*
X2020004Y1550835*
X2019777Y1550694*
X2019322*
X2019095Y1550835*
X2018868Y1551116*
X2018754Y1551397*
X2017731Y1553085D02*
X2017504Y1553226D01*
X2017163Y1553647*
Y1550694*
X2014550Y1553647D02*
X2015686Y1550694D01*
X2016140Y1553647D02*
X2014550D01*
X1968175Y1524907D02*
Y1521954D01*
Y1524907D02*
X1967152D01*
X1966812Y1524767*
X1966698Y1524626*
X1966584Y1524345*
Y1524064*
X1966698Y1523782*
X1966812Y1523642*
X1967152Y1523501*
X1968175*
X1967380D02*
X1966584Y1521954D01*
X1965334Y1524907D02*
X1964084D01*
X1964766Y1523782*
X1964425*
X1964198Y1523642*
X1964084Y1523501*
X1963971Y1523079*
Y1522798*
X1964084Y1522376*
X1964312Y1522095*
X1964652Y1521954*
X1964993*
X1965334Y1522095*
X1965448Y1522235*
X1965562Y1522517*
X1961584Y1524485D02*
X1961698Y1524767D01*
X1962039Y1524907*
X1962266*
X1962607Y1524767*
X1962834Y1524345*
X1962948Y1523642*
Y1522939*
X1962834Y1522376*
X1962607Y1522095*
X1962266Y1521954*
X1962152*
X1961812Y1522095*
X1961584Y1522376*
X1961471Y1522798*
Y1522939*
X1961584Y1523360*
X1961812Y1523642*
X1962152Y1523782*
X1962266*
X1962607Y1523642*
X1962834Y1523360*
X1962948Y1522939*
X1850526Y1543653D02*
X1850639Y1543934D01*
X1850867Y1544215*
X1851094Y1544356*
X1851548*
X1851776Y1544215*
X1852003Y1543934*
X1852117Y1543653*
X1852230Y1543231*
Y1542528*
X1852117Y1542106*
X1852003Y1541825*
X1851776Y1541544*
X1851548Y1541403*
X1851094*
X1850867Y1541544*
X1850639Y1541825*
X1850526Y1542106*
X1849276Y1544356D02*
X1848026D01*
X1848708Y1543231*
X1848367*
X1848139Y1543090*
X1848026Y1542950*
X1847912Y1542528*
Y1542247*
X1848026Y1541825*
X1848253Y1541544*
X1848594Y1541403*
X1848935*
X1849276Y1541544*
X1849389Y1541684*
X1849503Y1541965*
X1845753Y1544356D02*
X1846889Y1542387D01*
X1845185*
X1845753Y1544356D02*
Y1541403D01*
X1818479Y1547629D02*
X1818592Y1547911D01*
X1818819Y1548192*
X1819047Y1548332*
X1819501*
X1819729Y1548192*
X1819956Y1547911*
X1820069Y1547629*
X1820183Y1547207*
Y1546504*
X1820069Y1546082*
X1819956Y1545801*
X1819729Y1545520*
X1819501Y1545379*
X1819047*
X1818819Y1545520*
X1818592Y1545801*
X1818479Y1546082*
X1817229Y1548332D02*
X1815979D01*
X1816660Y1547207*
X1816319*
X1816092Y1547067*
X1815979Y1546926*
X1815865Y1546504*
Y1546223*
X1815979Y1545801*
X1816206Y1545520*
X1816547Y1545379*
X1816888*
X1817229Y1545520*
X1817342Y1545661*
X1817456Y1545942*
X1813365Y1548332D02*
X1814501D01*
X1814615Y1547067*
X1814501Y1547207*
X1814160Y1547348*
X1813819*
X1813479Y1547207*
X1813251Y1546926*
X1813138Y1546504*
X1813251Y1546223*
X1813365Y1545801*
X1813592Y1545520*
X1813933Y1545379*
X1814274*
X1814615Y1545520*
X1814729Y1545661*
X1814842Y1545942*
X1850020Y1570076D02*
X1850301Y1569962D01*
X1850582Y1569735*
X1850723Y1569508*
Y1569053*
X1850582Y1568826*
X1850301Y1568599*
X1850020Y1568485*
X1849598Y1568371*
X1848895*
X1848473Y1568485*
X1848192Y1568599*
X1847910Y1568826*
X1847770Y1569053*
Y1569508*
X1847910Y1569735*
X1848192Y1569962*
X1848473Y1570076*
X1850723Y1571326D02*
Y1572576D01*
X1849598Y1571894*
Y1572235*
X1849457Y1572462*
X1849317Y1572576*
X1848895Y1572690*
X1848613*
X1848192Y1572576*
X1847910Y1572349*
X1847770Y1572008*
Y1571667*
X1847910Y1571326*
X1848051Y1571212*
X1848332Y1571099*
X1850301Y1575076D02*
X1850582Y1574962D01*
X1850723Y1574621*
Y1574394*
X1850582Y1574053*
X1850160Y1573826*
X1849457Y1573712*
X1848754*
X1848192Y1573826*
X1847910Y1574053*
X1847770Y1574394*
Y1574508*
X1847910Y1574849*
X1848192Y1575076*
X1848613Y1575190*
X1848754*
X1849176Y1575076*
X1849457Y1574849*
X1849598Y1574508*
Y1574394*
X1849457Y1574053*
X1849176Y1573826*
X1848754Y1573712*
X1821797Y1571246D02*
Y1569136D01*
X1821684Y1568715*
X1821456Y1568433*
X1821115Y1568293*
X1820888*
X1820547Y1568433*
X1820320Y1568715*
X1820206Y1569136*
Y1571246*
X1819184Y1570683D02*
X1818956Y1570824D01*
X1818615Y1571246*
Y1568293*
X1827101Y1600110D02*
X1827214Y1600391D01*
X1827441Y1600672*
X1827669Y1600813*
X1828123*
X1828351Y1600672*
X1828578Y1600391*
X1828691Y1600110*
X1828805Y1599688*
Y1598985*
X1828691Y1598563*
X1828578Y1598282*
X1828351Y1598000*
X1828123Y1597860*
X1827669*
X1827441Y1598000*
X1827214Y1598282*
X1827101Y1598563*
X1825851Y1600813D02*
X1824601D01*
X1825282Y1599688*
X1824941*
X1824714Y1599547*
X1824601Y1599407*
X1824487Y1598985*
Y1598703*
X1824601Y1598282*
X1824828Y1598000*
X1825169Y1597860*
X1825510*
X1825851Y1598000*
X1825964Y1598141*
X1826078Y1598422*
X1821873Y1600813D02*
X1823010Y1597860D01*
X1823464Y1600813D02*
X1821873D01*
X1827179Y1595267D02*
X1827293Y1595548D01*
X1827520Y1595830*
X1827747Y1595970*
X1828202*
X1828429Y1595830*
X1828657Y1595548*
X1828770Y1595267*
X1828884Y1594845*
Y1594142*
X1828770Y1593720*
X1828657Y1593439*
X1828429Y1593158*
X1828202Y1593017*
X1827747*
X1827520Y1593158*
X1827293Y1593439*
X1827179Y1593720*
X1825929Y1595970D02*
X1824679D01*
X1825361Y1594845*
X1825020*
X1824793Y1594705*
X1824679Y1594564*
X1824566Y1594142*
Y1593861*
X1824679Y1593439*
X1824907Y1593158*
X1825247Y1593017*
X1825588*
X1825929Y1593158*
X1826043Y1593298*
X1826157Y1593580*
X1822975Y1595970D02*
X1823316Y1595830D01*
X1823429Y1595548*
Y1595267*
X1823316Y1594986*
X1823088Y1594845*
X1822634Y1594705*
X1822293Y1594564*
X1822066Y1594283*
X1821952Y1594002*
X1821952D02*
Y1593580D01*
X1822066Y1593298*
X1822179Y1593158*
X1822520Y1593017*
X1822975*
X1823316Y1593158*
X1823429Y1593298*
X1823543Y1593580*
Y1594002*
X1823543D02*
X1823429Y1594283D01*
X1823202Y1594564*
X1822861Y1594705*
X1822407Y1594845*
X1822179Y1594986*
X1822066Y1595267*
Y1595548*
X1822179Y1595830*
X1822520Y1595970*
X1822975*
X1890709Y1594119D02*
Y1590838D01*
X1889345*
X1888322Y1593494D02*
X1888095Y1593650D01*
X1887754Y1594119*
Y1590838*
X1890112Y1527859D02*
X1890099Y1528191D01*
X1890190Y1528566*
X1890341Y1528797*
X1890762Y1528969*
X1891031Y1528911*
X1891360Y1528708*
X1891584Y1528462*
X1891867Y1528072*
X1892163Y1527349*
X1892236Y1526872*
X1892250Y1526540*
X1892158Y1526164*
X1892007Y1525934*
X1891586Y1525761*
X1891317Y1525819*
X1890988Y1526022*
X1890764Y1526268*
X1888659Y1528107D02*
X1887503Y1527633D01*
X1888608Y1526735*
X1888292Y1526606*
X1888141Y1526375*
X1888096Y1526187*
X1888168Y1525710*
X1888287Y1525421*
X1888570Y1525031*
X1888899Y1524828*
X1889273Y1524812*
X1889589Y1524942*
X1889845Y1525216*
X1889891Y1525403*
X1889877Y1525736*
X1885499Y1525629D02*
X1885782Y1525238D01*
X1886111Y1525036*
X1886486Y1525020*
X1886591Y1525063*
X1886847Y1525337*
X1886939Y1525713*
X1886866Y1526190*
X1886807Y1526334*
X1886524Y1526725*
X1886195Y1526928*
X1885820Y1526943*
X1885715Y1526900*
X1885459Y1526626*
X1885367Y1526250*
X1885499Y1525629*
X1885796Y1524906*
X1886198Y1524226*
X1886586Y1523879*
X1886960Y1523864*
X1887171Y1523950*
X1887427Y1524224*
X1887413Y1524556*
X1850408Y1538889D02*
X1850521Y1539170D01*
X1850749Y1539452*
X1850976Y1539592*
X1851430*
X1851658Y1539452*
X1851885Y1539170*
X1851999Y1538889*
X1852112Y1538467*
Y1537764*
X1851999Y1537342*
X1851885Y1537061*
X1851658Y1536780*
X1851430Y1536639*
X1850976*
X1850749Y1536780*
X1850521Y1537061*
X1850408Y1537342*
X1849158Y1539592D02*
X1847908D01*
X1848589Y1538467*
X1848249*
X1848021Y1538327*
X1847908Y1538186*
X1847794Y1537764*
Y1537483*
X1847908Y1537061*
X1848135Y1536780*
X1848476Y1536639*
X1848817*
X1849158Y1536780*
X1849271Y1536920*
X1849385Y1537202*
X1846544Y1539592D02*
X1845294D01*
X1845976Y1538467*
X1845635*
X1845408Y1538327*
X1845294Y1538186*
X1845180Y1537764*
Y1537483*
X1845294Y1537061*
X1845521Y1536780*
X1845862Y1536639*
X1846203*
X1846544Y1536780*
X1846658Y1536920*
X1846771Y1537202*
X1829685Y1529080D02*
Y1525799D01*
Y1529080D02*
X1828662D01*
X1828321Y1528924*
X1828208Y1528767*
X1828094Y1528455*
Y1528142*
X1828208Y1527830*
X1828321Y1527674*
X1828662Y1527517*
X1829685*
X1828890D02*
X1828094Y1525799D01*
X1826844Y1529080D02*
X1825594D01*
X1826276Y1527830*
X1825935*
X1825708Y1527674*
X1825594Y1527517*
X1825480Y1527049*
Y1526736*
X1825594Y1526267*
X1825821Y1525955*
X1826162Y1525799*
X1826503*
X1826844Y1525955*
X1826958Y1526111*
X1827071Y1526424*
X1822867Y1529080D02*
X1824003Y1525799D01*
X1824458Y1529080D02*
X1822867D01*
X1819843Y1539985D02*
Y1536704D01*
Y1539985D02*
X1818820D01*
X1818479Y1539829*
X1818365Y1539673*
X1818252Y1539360*
Y1539048*
X1818365Y1538735*
X1818479Y1538579*
X1818820Y1538423*
X1819843*
X1819047D02*
X1818252Y1536704D01*
X1817002Y1539985D02*
X1815752D01*
X1816433Y1538735*
X1816093*
X1815865Y1538579*
X1815752Y1538423*
X1815638Y1537954*
Y1537642*
X1815752Y1537173*
X1815979Y1536860*
X1816320Y1536704*
X1816661*
X1817002Y1536860*
X1817115Y1537017*
X1817229Y1537329*
X1814047Y1539985D02*
X1814388Y1539829D01*
X1814502Y1539517*
Y1539204*
X1814388Y1538892*
X1814161Y1538735*
X1813706Y1538579*
X1813365Y1538423*
X1813138Y1538110*
X1813024Y1537798*
Y1537329*
X1813138Y1537017*
X1813252Y1536860*
X1813593Y1536704*
X1814047*
X1814388Y1536860*
X1814502Y1537017*
X1814615Y1537329*
Y1537798*
X1814502Y1538110*
X1814274Y1538423*
X1813933Y1538579*
X1813479Y1538735*
X1813252Y1538892*
X1813138Y1539204*
Y1539517*
X1813252Y1539829*
X1813593Y1539985*
X1814047*
X1829488Y1611915D02*
Y1608633D01*
Y1611915D02*
X1828465D01*
X1828125Y1611758*
X1828011Y1611602*
X1827897Y1611290*
Y1610977*
X1828011Y1610665*
X1828125Y1610508*
X1828465Y1610352*
X1829488*
X1828693D02*
X1827897Y1608633D01*
X1825738Y1611915D02*
X1826875Y1609727D01*
X1825170*
X1825738Y1611915D02*
Y1608633D01*
X1824147Y1611290D02*
X1823920Y1611446D01*
X1823579Y1611915*
Y1608633*
X1829291Y1606560D02*
Y1603279D01*
Y1606560D02*
X1828269D01*
X1827928Y1606404*
X1827814Y1606248*
X1827700Y1605935*
Y1605623*
X1827814Y1605310*
X1827928Y1605154*
X1828269Y1604998*
X1829291*
X1828496D02*
X1827700Y1603279D01*
X1826450Y1606560D02*
X1825200D01*
X1825882Y1605310*
X1825541*
X1825314Y1605154*
X1825200Y1604998*
X1825087Y1604529*
Y1604216*
X1825200Y1603748*
X1825428Y1603435*
X1825769Y1603279*
X1826110*
X1826450Y1603435*
X1826564Y1603591*
X1826678Y1603904*
X1822587Y1605466D02*
X1822700Y1604998D01*
X1822928Y1604685*
X1823269Y1604529*
X1823382*
X1823723Y1604685*
X1823950Y1604998*
X1824064Y1605466*
Y1605623*
X1823950Y1606091*
X1823723Y1606404*
X1823382Y1606560*
X1823269*
X1822928Y1606404*
X1822700Y1606091*
X1822587Y1605466*
Y1604685*
X1822700Y1603904*
X1822928Y1603435*
X1823269Y1603279*
X1823496*
X1823837Y1603435*
X1823950Y1603748*
G54D12*
X1857687Y1568213D02*
X1853887D01*
X1856987Y1566513D02*
X1854587D01*
X1854387Y1566613D02*
X1855587Y1567913D01*
X1857187Y1566513D02*
X1856087Y1567913D01*
X1855787Y1568213D02*
Y1569578D01*
Y1566313D02*
Y1565098D01*
G54D13*
X1901575Y1468830D02*
Y1476704D01*
X1906299*
Y1468830*
X2093701*
Y1476704*
X2098425*
Y1468830*
X2197829*
G03X2199797Y1470799I-0J1969*
G01Y1539309*
X2237205*
G03X2239173Y1541277I-0J1968*
G01Y1624342*
G03X2237205Y1626310I-1968J-0*
G01X2119094*
Y1718830*
G03X2117126Y1720799I-1968J0*
G01X2048425*
Y1712531*
X2042913*
Y1720799*
X1846850*
Y1712531*
X1841339*
Y1720799*
X1762795*
G03X1760827Y1718830I0J-1969*
G01Y1541277*
G03X1762795Y1539309I1968J0*
G01X1800203*
Y1470799*
G03X1802171Y1468830I1968J-0*
G01X1901575*
X1908661Y1614499D02*
G03X1908661I-6102J0D01*
G01X2103543D02*
G03X2103543I-6102J0D01*
G01X2073228Y1515434D02*
G03X2073228I-11023J0D01*
G01X2091929Y1544962D02*
G03X2091929I-4134J0D01*
G01Y1485907D02*
G03X2091929I-4134J0D01*
G54D23*
G01X1870439Y1635247D02*
G03X1870439I-20242J0D01*
G01X1850197Y1655523D02*
Y1615208D01*
X1851220Y1653476D02*
X1869606Y1635090D01*
X1850000Y1647334D02*
X1868307Y1629027D01*
X1850472Y1639342D02*
X1865984Y1623830D01*
X1850472Y1631035D02*
X1861614Y1619893D01*
X1850315Y1622570D02*
X1855827Y1617058D01*
X1858228Y1653121D02*
X1868307Y1643043D01*
X1883846Y1664897D02*
Y1672897D01*
X1892846*
Y1664897*
X1883846Y1661897D02*
Y1653897D01*
X1892846*
Y1661897*
X1894634Y1665094D02*
Y1673094D01*
X1903634*
Y1665094*
X1894634Y1662094D02*
Y1654094D01*
X1903634*
Y1662094*
X1872665Y1664976D02*
Y1672976D01*
X1881665*
Y1664976*
X1872665Y1661976D02*
Y1653976D01*
X1881665*
Y1661976*
X1861799Y1664976D02*
Y1672976D01*
X1870799*
Y1664976*
X1861799Y1661976D02*
Y1653976D01*
X1870799*
Y1661976*
X1884610Y1591822D02*
G03X1884610I-17366J0D01*
G01X1896720Y1548648D02*
G03X1896720I-20241J0D01*
G01X1868759Y1567397D02*
X1884109Y1530118D01*
X1870485Y1565893D02*
X1894486Y1555893D01*
X1871695Y1559749D02*
X1895593Y1549792D01*
X1875175Y1552539D02*
X1895424Y1544102D01*
X1878337Y1544858D02*
X1892882Y1538797D01*
X1881415Y1536971D02*
X1888610Y1533973D01*
X1877100Y1568234D02*
X1890257Y1562752D01*
X1930429Y1530228D02*
X1943429D01*
Y1555228*
X1930429*
Y1530228*
X1843155Y1504460D02*
G03X1843155I-20242J0D01*
G01X1822913Y1524736D02*
Y1484421D01*
X1823937Y1522688D02*
X1842323Y1504303D01*
X1822717Y1516547D02*
X1841024Y1498240D01*
X1823189Y1508555D02*
X1838701Y1493043D01*
X1823189Y1500247D02*
X1834331Y1489106D01*
X1823031Y1491783D02*
X1828543Y1486271D01*
X1830945Y1522334D02*
X1841024Y1512255D01*
X1915906Y1730720D02*
X1868661D01*
Y1679539*
X1915906*
Y1730720*
X1978819Y1665326D02*
X2026457D01*
Y1730681*
X1978819*
Y1665326*
X1939764Y1564212D02*
Y1559524D01*
X1939537Y1558587*
X1939082Y1557962*
X1938400Y1557649*
X1937946*
X1937264Y1557962*
X1936809Y1558587*
X1936582Y1559524*
Y1564212*
X1932264D02*
X1934537Y1559837D01*
X1931127*
X1932264Y1564212D02*
Y1557649D01*
G54D27*
X2069588Y1681977D02*
Y1690977D01*
X2074588D02*
G03X2069588I-2500J-2625D01*
G01X2074588D02*
Y1681977D01*
X2069588D02*
G03X2074588I2500J2500D01*
G01X1963183Y1535869D02*
X1974590D01*
G03Y1541869I-2788J3000*
G01X1963183*
G03Y1535869I2857J-3000*
G01X1985948Y1550032D02*
X1976948D01*
X1976947Y1555032D02*
G03Y1550032I2626J-2500D01*
G01X1976948Y1555032D02*
X1985948D01*
Y1550032D02*
G03Y1555032I-2500J2500D01*
G01X1836569Y1529373D02*
X1847976D01*
G03Y1535373I-2788J3000*
G01X1836569*
G03Y1529373I2857J-3000*
G01X1946738Y1526751D02*
X1935331D01*
G03Y1520751I2788J-3000*
G01X1946738*
G03Y1526751I-2857J3000*
G01X1909835Y1553757D02*
Y1542350D01*
G03X1915835I3000J2788*
G01Y1553757*
G03X1909835I-3000J-2857*
G01X2072605Y1696673D02*
X2072741Y1697004D01*
X2073014Y1697335*
X2073286Y1697501*
X2073832*
X2074105Y1697335*
X2074377Y1697004*
X2074514Y1696673*
X2074650Y1696176*
Y1695348*
X2074514Y1694851*
X2074377Y1694520*
X2074105Y1694188*
X2073832Y1694023*
X2073286*
X2073014Y1694188*
X2072741Y1694520*
X2072605Y1694851*
X2071241Y1696673D02*
Y1696838D01*
X2071105Y1697170*
X2070968Y1697335*
X2070695Y1697501*
X2070150*
X2069877Y1697335*
X2069741Y1697170*
X2069605Y1696838*
Y1696507*
X2069741Y1696176*
X2070014Y1695679*
X2071377Y1694023*
X2069468*
X2066605Y1697004D02*
X2066741Y1697335D01*
X2067150Y1697501*
X2067423*
X2067832Y1697335*
X2068105Y1696838*
X2068241Y1696010*
Y1695182*
X2068105Y1694520*
X2067832Y1694188*
X2067423Y1694023*
X2067286*
X2066877Y1694188*
X2066605Y1694520*
X2066468Y1695016*
Y1695182*
X2066605Y1695679*
X2066877Y1696010*
X2067286Y1696176*
X2067423*
X2067832Y1696010*
X2068105Y1695679*
X2068241Y1695182*
X1971620Y1553759D02*
X1971757Y1554091D01*
X1971757D02*
X1972029Y1554422D01*
X1972302Y1554587*
X1972848*
X1973120Y1554422*
X1973393Y1554091*
X1973393D02*
X1973529Y1553759D01*
X1973666Y1553262*
Y1552434*
X1973529Y1551937*
X1973393Y1551606*
X1973120Y1551275*
X1972848Y1551109*
X1972302*
X1972029Y1551275*
X1971757Y1551606*
X1971620Y1551937*
X1968620Y1553428D02*
X1968757Y1552931D01*
X1969029Y1552600*
X1969438Y1552434*
X1969575*
X1969984Y1552600*
X1970257Y1552931*
X1970393Y1553428*
Y1553594*
X1970257Y1554091*
X1970257D02*
X1969984Y1554422D01*
X1969575Y1554587*
X1969438*
X1969029Y1554422*
X1968757Y1554091*
X1968757D02*
X1968620Y1553428D01*
Y1552600*
X1968757Y1551772*
X1969029Y1551275*
X1969438Y1551109*
X1969711*
X1970120Y1551275*
X1970257Y1551606*
G54D36*
X2025483Y1568052D02*
X1970365D01*
Y1623170*
X2025483D02*
X1970365D01*
X2025483Y1568052D02*
Y1623170D01*
X1971006Y1546161D02*
X1971142Y1546499D01*
X1971415Y1546837*
X1971688Y1547006*
X1972233*
X1972506Y1546837*
X1972778Y1546499*
X1972915Y1546161*
X1973051Y1545654*
Y1544808*
X1972915Y1544301*
X1972778Y1543963*
X1972506Y1543625*
X1972233Y1543456*
X1971688*
X1971415Y1543625*
X1971142Y1543963*
X1971006Y1544301*
X1969642Y1546161D02*
Y1546330D01*
X1969506Y1546668*
X1969369Y1546837*
X1969097Y1547006*
X1968551*
X1968278Y1546837*
X1968142Y1546668*
X1968006Y1546330*
Y1545992*
X1968142Y1545654*
X1968415Y1545147*
X1969778Y1543456*
X1967869*
X1965824Y1547006D02*
X1966233Y1546837D01*
X1966506Y1546330*
X1966642Y1545485*
Y1544978*
X1966506Y1544132*
X1966233Y1543625*
X1965824Y1543456*
X1965551*
X1965142Y1543625*
X1964869Y1544132*
X1964733Y1544978*
Y1545485*
X1964869Y1546330*
X1965142Y1546837*
X1965551Y1547006*
X1965824*
X1853128Y1530043D02*
X1852992Y1529705D01*
X1852719Y1529367*
X1852446Y1529197*
X1851901*
X1851628Y1529367*
X1851355Y1529705*
X1851219Y1530043*
X1851083Y1530550*
Y1531395*
X1851219Y1531902*
X1851355Y1532240*
X1851628Y1532578*
X1851901Y1532747*
X1852446*
X1852719Y1532578*
X1852992Y1532240*
X1853128Y1531902*
X1854628Y1529197D02*
X1856128D01*
X1855310Y1530550*
X1855719*
X1855992Y1530719*
X1856128Y1530888*
X1856264Y1531395*
Y1531733*
X1856128Y1532240*
X1855855Y1532578*
X1855446Y1532747*
X1855037*
X1854628Y1532578*
X1854492Y1532409*
X1854355Y1532071*
X1857628Y1530043D02*
Y1529874D01*
X1857764Y1529536*
X1857901Y1529367*
X1858174Y1529197*
X1858719*
X1858992Y1529367*
X1859128Y1529536*
X1859264Y1529874*
Y1530212*
X1859128Y1530550*
X1858855Y1531057*
X1857492Y1532747*
X1859401*
X1943644Y1518208D02*
X1943780Y1518546D01*
X1944053Y1518884*
X1944325Y1519053*
X1944871*
X1945144Y1518884*
X1945416Y1518546*
X1945553Y1518208*
X1945689Y1517701*
Y1516856*
X1945553Y1516349*
X1945416Y1516010*
X1945144Y1515672*
X1944871Y1515503*
X1944325*
X1944053Y1515672*
X1943780Y1516010*
X1943644Y1516349*
X1941053Y1519053D02*
X1942416Y1516687D01*
X1940371*
X1941053Y1519053D02*
Y1515503D01*
X1938325Y1519053D02*
X1938734Y1518884D01*
X1939007Y1518377*
X1939144Y1517532*
Y1517025*
X1939007Y1516180*
X1938734Y1515672*
X1938325Y1515503*
X1938053*
X1937644Y1515672*
X1937371Y1516180*
X1937234Y1517025*
Y1517532*
X1937371Y1518377*
X1937644Y1518884*
X1938053Y1519053*
X1938325*
X1865079Y1613847D02*
Y1609972D01*
Y1613847D02*
X1863871D01*
X1863468Y1613663*
X1863334Y1613478*
X1863200Y1613109*
Y1612740*
X1863334Y1612371*
X1863468Y1612186*
X1863871Y1612002*
X1865079*
X1864139D02*
X1863200Y1609972D01*
X1860650Y1613847D02*
X1861992Y1611264D01*
X1859979*
X1860650Y1613847D02*
Y1609972D01*
X1857965Y1613847D02*
X1858368Y1613663D01*
X1858636Y1613109*
X1858771Y1612186*
Y1611633*
X1858636Y1610710*
X1858368Y1610156*
X1857965Y1609972*
X1857697*
X1857294Y1610156*
X1857026Y1610710*
X1856892Y1611633*
Y1612186*
X1857026Y1613109*
X1857294Y1613663*
X1857697Y1613847*
X1857965*
X1913604Y1559901D02*
X1913741Y1560239D01*
X1914013Y1560577*
X1914286Y1560746*
X1914831*
X1915104Y1560577*
X1915377Y1560239*
X1915513Y1559901*
X1915650Y1559394*
Y1558549*
X1915513Y1558041*
X1915377Y1557703*
X1915104Y1557365*
X1914831Y1557196*
X1914286*
X1914013Y1557365*
X1913741Y1557703*
X1913604Y1558041*
X1912377Y1560070D02*
X1912104Y1560239D01*
X1911695Y1560746*
Y1557196*
X1909104Y1560746D02*
X1910468Y1558380D01*
X1908422*
X1909104Y1560746D02*
Y1557196D01*
G54D38*
X2023341Y1570565D02*
G03X2023341I-1287J0D01*
G01X1858543Y1560002D02*
Y1575790D01*
X1857458*
X1853031*
Y1560002*
X1858543*
G54D291*
X2128701Y1577186D02*
Y1572019D01*
Y1577186D02*
X2127090D01*
X2126553Y1576940*
X2126374Y1576694*
X2126195Y1576202*
Y1575710*
X2126374Y1575218*
X2126553Y1574972*
X2127090Y1574726*
X2128701D02*
X2127090D01*
X2126553Y1574480*
X2126374Y1574234*
X2126195Y1573742*
Y1573003*
X2126374Y1572511*
X2126553Y1572265*
X2127090Y1572019*
X2128701*
X2123332Y1577186D02*
Y1572019D01*
X2124585Y1577186D02*
X2122079D01*
X2120469Y1576202D02*
X2120111Y1576448D01*
X2119574Y1577186*
Y1572019*
X1998386Y1639071D02*
Y1635749D01*
X1998207Y1635085*
X1997849Y1634642*
X1997312Y1634421*
X1996954*
X1996417Y1634642*
X1996059Y1635085*
X1995880Y1635749*
Y1639071*
X1994091Y1637964D02*
Y1638185D01*
X1993912Y1638628*
X1993733Y1638850*
X1993375Y1639071*
X1992659*
X1992301Y1638850*
X1992122Y1638628*
X1991943Y1638185*
Y1637743*
X1992122Y1637300*
X1992480Y1636635*
X1994270Y1634421*
X1991764*
X1829757Y1653633D02*
X1829936Y1654125D01*
X1830293Y1654618*
X1830651Y1654864*
X1831367*
X1831725Y1654618*
X1832083Y1654125*
X1832262Y1653633*
X1832441Y1652895*
Y1651665*
X1832262Y1650927*
X1832083Y1650434*
X1831725Y1649942*
X1831367Y1649696*
X1830651*
X1830293Y1649942*
X1829936Y1650434*
X1829757Y1650927*
X1828146Y1653879D02*
X1827788Y1654125D01*
X1827251Y1654864*
Y1649696*
X1825641Y1653879D02*
X1825283Y1654125D01*
X1824746Y1654864*
Y1649696*
X1851056Y1515759D02*
X1851235Y1516251D01*
X1851593Y1516744*
X1851951Y1516990*
X1852666*
X1853024Y1516744*
X1853382Y1516251*
X1853561Y1515759*
X1853740Y1515021*
Y1513791*
X1853561Y1513053*
X1853382Y1512560*
X1853024Y1512068*
X1852666Y1511822*
X1851951*
X1851593Y1512068*
X1851235Y1512560*
X1851056Y1513053*
X1847656Y1516990D02*
X1849445Y1513545D01*
X1846761*
X1847656Y1516990D02*
Y1511822D01*
X1845150Y1516005D02*
X1844792Y1516251D01*
X1844256Y1516990*
Y1511822*
X1927187Y1691911D02*
Y1687974D01*
X1927366Y1687236*
X1927545Y1686990*
X1927903Y1686744*
X1928261*
X1928618Y1686990*
X1928797Y1687236*
X1928976Y1687974*
Y1688466*
X1923250Y1691911D02*
X1925039D01*
X1925218Y1689696*
X1925039Y1689942*
X1924503Y1690188*
X1923966*
X1923429Y1689942*
X1923071Y1689450*
X1922892Y1688712*
X1923071Y1688220*
X1923250Y1687482*
X1923608Y1686990*
X1924145Y1686744*
X1924681*
X1925218Y1686990*
X1925397Y1687236*
X1925576Y1687728*
X2040061Y1684116D02*
Y1680179D01*
X2040240Y1679440*
X2040419Y1679194*
X2040777Y1678948*
X2041135*
X2041492Y1679194*
X2041671Y1679440*
X2041850Y1680179*
Y1680671*
X2038092Y1684116D02*
X2036124D01*
X2037198Y1682147*
X2036661*
X2036303Y1681901*
X2036124Y1681655*
X2035945Y1680917*
Y1680425*
X2036124Y1679686*
X2036482Y1679194*
X2037019Y1678948*
X2037555*
X2038092Y1679194*
X2038271Y1679440*
X2038450Y1679932*
G54D321*
X1999508Y1533808D02*
Y1537817D01*
X2000963Y1533808D02*
Y1537835D01*
X1999908Y1533825D02*
X2000579D01*
Y1537817*
X1999908*
Y1533825*
X2001062Y1535904D02*
X2001286D01*
Y1532925*
X2001518*
X1999409Y1535877D02*
X1999127D01*
Y1538830*
X1998946*
X1991974Y1529115D02*
X2008802D01*
Y1543018*
X1991974*
Y1529115*
G74*
X0Y0D02*
M02*
